<svg xmlns="http://www.w3.org/2000/svg" xmlns:xlink="http://www.w3.org/1999/xlink" version="1.1" id="Layer_1" x="0px" y="0px" width="200px" height="200px" viewBox="0 0 100 100" enable-background="new 0 0 100 100" xml:space="preserve">
<g>
	<path style="fill:#555" d="M83.06,9.35v23.42c0,2.7-1.17,5.03-2.869,6.12v53.78h-0.03c0,2.17-1.76,3.93-3.9,3.93c-2.17,0-3.93-1.76-3.93-3.93   c0-0.09,0-0.16,0.02-0.26V61.31c0-0.25-0.22-0.46-0.46-0.46c-0.26,0-0.47,0.21-0.47,0.46v31.36c0,2.17-1.77,3.93-3.939,3.93   c-2.171,0-3.921-1.76-3.921-3.93c0-0.09,0-0.16,0.021-0.26V60.85H63.56V38.9c-0.46-0.29-0.89-0.68-1.26-1.15   c0.891-1.37,1.391-3.12,1.391-4.98V9.35c0-1.07-0.421-2.04-1.12-2.76c0.33-0.13,0.68-0.2,1.06-0.2c1.62,0,2.94,1.33,2.94,2.96v6.2   c-1.511,1.41-2.45,3.43-2.45,5.66s0.939,4.25,2.45,5.66v2.45c0,0.26,0.189,0.48,0.46,0.48h9.67c0.26,0,0.479-0.22,0.479-0.48v-2.43   c1.521-1.42,2.471-3.44,2.471-5.68c0-2.24-0.95-4.26-2.471-5.68V9.35c0-1.63,1.301-2.96,2.94-2.96   C81.73,6.39,83.06,7.72,83.06,9.35z"/>
	<path style="fill:#555" d="M78.751,21.208c0,1.656-0.585,3.188-1.575,4.375c-1.26,1.522-3.168,2.494-5.292,2.494c-2.134,0-4.042-0.98-5.311-2.512   c-0.973-1.187-1.558-2.709-1.558-4.356c0-1.656,0.585-3.177,1.558-4.365c1.269-1.529,3.177-2.502,5.311-2.502   c2.124,0,4.032,0.963,5.292,2.485C78.166,18.014,78.751,19.543,78.751,21.208z"/>
</g>
<g>
	<path style="fill:#555" d="M39.31,32.77c0,1.87,0.5,3.62,1.38,4.98c-0.37,0.46-0.79,0.84-1.25,1.14v53.78h-0.03c0,2.17-1.76,3.93-3.9,3.93   c-2.17,0-3.94-1.76-3.94-3.93c0-0.09,0-0.16,0.03-0.26V61.31c0-0.25-0.22-0.46-0.46-0.46c-0.26,0-0.48,0.21-0.48,0.46v31.36   c0,2.17-1.76,3.93-3.93,3.93s-3.92-1.76-3.92-3.93c0-0.09,0-0.16,0.01-0.26V60.85h-0.01V38.9c-1.71-1.08-2.88-3.43-2.88-6.13V9.35   c0-1.63,1.31-2.96,2.95-2.96c1.62,0,2.94,1.33,2.94,2.96v6.2c-1.51,1.41-2.46,3.43-2.46,5.66s0.95,4.25,2.46,5.66v2.45   c0,0.26,0.19,0.48,0.46,0.48h9.67c0.26,0,0.47-0.22,0.47-0.48v-2.43c1.52-1.42,2.48-3.44,2.48-5.68c0-2.24-0.96-4.26-2.48-5.68   V9.35c0-1.63,1.31-2.96,2.95-2.96c0.37,0,0.73,0.07,1.06,0.2c-0.7,0.72-1.12,1.69-1.12,2.76V32.77z"/>
	<path style="fill:#555" d="M37.999,21.208c0,1.656-0.585,3.188-1.575,4.375c-1.26,1.522-3.168,2.494-5.292,2.494c-2.134,0-4.042-0.98-5.311-2.512   c-0.973-1.187-1.558-2.709-1.558-4.356c0-1.656,0.585-3.177,1.558-4.365c1.269-1.529,3.177-2.502,5.311-2.502   c2.124,0,4.032,0.963,5.292,2.485C37.414,18.014,37.999,19.543,37.999,21.208z"/>
</g>
<path style="fill:#555" d="M62.69,9.35v23.42c0,1.52-0.37,2.92-1,4.05c0,0,0,0,0,0.01c-0.49,0.87-1.131,1.58-1.87,2.06v53.78h-0.03  c0,2.17-1.771,3.93-3.91,3.93c-2.17,0-3.93-1.76-3.93-3.93c0-0.09,0-0.16,0.02-0.26V61.31c0-0.25-0.21-0.46-0.45-0.46  c-0.26,0-0.479,0.21-0.479,0.46v31.36c0,2.17-1.77,3.93-3.93,3.93c-2.17,0-3.93-1.76-3.93-3.93c0-0.09,0-0.16,0.02-0.26V60.85h-0.02  V38.9c-0.74-0.47-1.39-1.19-1.87-2.07c0-0.01,0-0.01,0-0.01c-0.63-1.13-1-2.54-1-4.05V9.35c0-0.88,0.38-1.68,0.99-2.22  c0.52-0.46,1.2-0.74,1.95-0.74c1.62,0,2.95,1.33,2.95,2.96v6.05c-0.28,0.24-0.53,0.51-0.77,0.8c-1.16,1.42-1.79,3.19-1.79,5.01  c0,1.81,0.63,3.58,1.78,4.99c0.24,0.29,0.5,0.57,0.78,0.81v2.31c0,0.26,0.19,0.48,0.46,0.48h9.66c0.26,0,0.479-0.22,0.479-0.48v-2.3  c0.271-0.24,0.53-0.51,0.771-0.8c1.16-1.39,1.81-3.18,1.81-5.01c0-1.84-0.649-3.63-1.81-5.02c-0.24-0.29-0.5-0.56-0.771-0.8V9.35  c0-1.63,1.311-2.96,2.94-2.96c0.729,0,1.42,0.28,1.939,0.74C62.3,7.67,62.69,8.47,62.69,9.35z"/>
<path style="fill:#555" d="M58.38,21.21c0,1.65-0.59,3.19-1.58,4.37c-0.3,0.36-0.63,0.69-1,0.98c-1.18,0.95-2.67,1.52-4.29,1.52  c-1.64,0-3.13-0.57-4.31-1.54c-0.36-0.29-0.7-0.62-1-0.98c-0.98-1.18-1.56-2.71-1.56-4.35c0-1.66,0.58-3.18,1.56-4.37  c0.3-0.36,0.64-0.69,1-0.97c1.18-0.96,2.67-1.53,4.31-1.53c1.62,0,3.11,0.56,4.29,1.5c0.37,0.29,0.7,0.63,1,0.99  C57.79,18.01,58.38,19.54,58.38,21.21z"/>
</svg>